<?xml version="1.0" encoding="UTF-8" standalone="no"?>
<!-- Created with Inkscape (http://www.inkscape.org/) -->

<svg
   width="216.56139mm"
   height="41.274998mm"
   viewBox="0 0 216.56139 41.274998"
   version="1.1"
   id="svg1"
   xml:space="preserve"
   xmlns="http://www.w3.org/2000/svg"
   xmlns:svg="http://www.w3.org/2000/svg"><defs
     id="defs1" /><g
     id="layer1"
     transform="translate(227.59443,-198.51125)"><path
       fill-rule="evenodd"
       clip-rule="evenodd"
       d="m -15.159419,198.95676 c -0.2159,-0.59401 -1.056217,-0.59401 -1.272117,0 l -0.981604,2.69935 -2.699279,0.98161 c -0.59399,0.216 -0.59399,1.05608 0,1.27209 l 2.699279,0.98158 0.981604,2.69941 c 0.2159,0.59393 1.056217,0.59393 1.272117,0 l 0.981604,-2.69941 2.699279,-0.98158 c 0.593989,-0.21601 0.593989,-1.05609 0,-1.27209 l -2.699279,-0.98161 z"
       fill="#1767be"
       id="path5"
       style="fill:#f9f9f9;stroke-width:0.264583" /><path
       d="m -93.239018,220.36583 c 2.434166,0.45861 4.40981,1.35819 5.926666,2.69875 1.552311,1.34065 2.328334,3.35148 2.328334,6.0325 0,3.91584 -1.411023,6.68523 -4.233334,8.30792 -2.786856,1.5875 -6.702689,2.38125 -11.747498,2.38125 h -11.80042 V 203.115 h 10.37167 c 5.150642,0 9.083938,0.74083 11.800415,2.2225 2.716477,1.4464 4.074583,3.82765 4.074583,7.14375 0,2.15194 -0.652727,3.89819 -1.957916,5.23875 -1.27,1.30527 -2.8575,2.18723 -4.7625,2.64583 z m -10.847912,-11.1125 v 8.51959 h 3.22791 c 3.668979,0 5.503335,-1.48167 5.503335,-4.445 0,-1.48167 -0.493977,-2.52236 -1.481667,-3.12209 -0.987689,-0.635 -2.557727,-0.9525 -4.709578,-0.9525 z m 3.175,24.23584 c 2.293139,0 4.021662,-0.33523 5.185828,-1.00542 1.199357,-0.70564 1.799167,-1.99311 1.799167,-3.86292 0,-3.38666 -2.116667,-5.08 -6.349995,-5.08 h -3.81 v 9.94834 z m 46.177988,-30.37417 -0.846666,6.6675 h -9.04875 v 30.00375 h -8.678334 V 209.7825 h -9.472083 v -6.6675 z m 16.882533,22.64833 h -3.386666 v 14.02292 h -8.678334 V 203.115 h 12.012084 c 5.009356,0 8.766439,0.91723 11.27125,2.75167 2.539999,1.83443 3.809999,4.63902 3.809999,8.41375 0,2.3636 -0.564356,4.33916 -1.693333,5.92666 -1.128977,1.55223 -2.910416,2.87523 -5.344583,3.96875 l 9.313333,15.61042 h -9.789583 z m -3.386666,-5.97958 h 3.65125 c 1.940189,0 3.386666,-0.44098 4.339166,-1.32292 0.98769,-0.88193 1.481667,-2.27541 1.481667,-4.18041 0,-1.7639 -0.529167,-3.05152 -1.5875,-3.86292 -1.023144,-0.8114 -2.610644,-1.21708 -4.7625,-1.21708 h -3.122083 z"
       fill="#1767be"
       id="path6"
       style="fill:#f9f9f9;stroke-width:0.264583" /><path
       d="m -214.10068,239.78625 c -2.57527,0 -4.88598,-0.635 -6.93209,-1.905 -2.01083,-1.27 -3.61598,-2.99852 -4.81541,-5.18583 -1.16417,-2.18731 -1.74625,-4.63894 -1.74625,-7.35542 0,-2.71648 0.58208,-5.16819 1.74625,-7.35542 1.19943,-2.18723 2.80458,-3.91583 4.81541,-5.18583 2.04611,-1.27 4.35682,-1.905 6.93209,-1.905 2.46943,0 4.70958,0.51152 6.72041,1.53458 2.04611,0.98777 3.59834,2.34598 4.65667,4.07459 l -3.01625,3.70416 c -0.56444,-0.81139 -1.28765,-1.55223 -2.16958,-2.2225 -0.88194,-0.67027 -1.81682,-1.19943 -2.80459,-1.5875 -0.98777,-0.38806 -1.94027,-0.58208 -2.8575,-0.58208 -1.69333,0 -3.21027,0.42333 -4.55083,1.27 -1.30527,0.8114 -2.34598,1.94027 -3.12208,3.38667 -0.77611,1.44639 -1.16417,3.06916 -1.16417,4.86833 0,1.79917 0.40569,3.42186 1.21708,4.86833 0.8114,1.41103 1.88736,2.54 3.22792,3.38667 1.34056,0.84667 2.82223,1.27 4.445,1.27 0.9525,0 1.86973,-0.15875 2.75167,-0.47625 0.91723,-0.3175 1.79916,-0.79375 2.64583,-1.42875 0.84667,-0.635 1.64042,-1.41102 2.38125,-2.32833 l 3.01625,3.70416 c -1.1289,1.5875 -2.75167,2.89269 -4.86833,3.91584 -2.0814,1.02314 -4.25098,1.53458 -6.50875,1.53458 z m 29.03299,0 c -2.71621,0 -5.15038,-0.61727 -7.3025,-1.85208 -2.11667,-1.27 -3.79227,-2.98106 -5.02708,-5.13292 -1.23455,-2.18731 -1.85209,-4.67439 -1.85209,-7.46125 0,-2.78694 0.61754,-5.2564 1.85209,-7.40833 1.23481,-2.18723 2.91041,-3.89819 5.02708,-5.13292 2.15212,-1.27 4.58629,-1.905 7.3025,-1.905 2.68129,0 5.08,0.635 7.19667,1.905 2.15212,1.23473 3.84545,2.94569 5.08,5.13292 1.23481,2.15193 1.85208,4.62139 1.85208,7.40833 0,2.78686 -0.61727,5.27394 -1.85208,7.46125 -1.23455,2.15186 -2.92788,3.86292 -5.08,5.13292 -2.11667,1.23481 -4.51538,1.85208 -7.19667,1.85208 z m 0,-4.97417 c 1.65814,0 3.13981,-0.4056 4.445,-1.21708 1.30545,-0.84667 2.32833,-1.97564 3.06917,-3.38667 0.74083,-1.44647 1.09378,-3.06916 1.05833,-4.86833 0.0354,-1.83436 -0.3175,-3.45723 -1.05833,-4.86833 -0.74084,-1.4464 -1.76372,-2.57527 -3.06917,-3.38667 -1.30519,-0.8114 -2.78686,-1.21708 -4.445,-1.21708 -1.65788,0 -3.15727,0.42333 -4.49792,1.27 -1.30519,0.81139 -2.32833,1.94027 -3.06916,3.38666 -0.74084,1.41111 -1.09353,3.01625 -1.05834,4.81542 -0.0352,1.79917 0.3175,3.42186 1.05834,4.86833 0.74083,1.41103 1.76397,2.54 3.06916,3.38667 1.34065,0.81148 2.84004,1.21708 4.49792,1.21708 z m 20.09431,4.445 v -27.78125 h 5.50333 v 8.73125 l -0.52916,-2.11666 c 0.38814,-1.34057 1.0406,-2.55765 1.95791,-3.65125 0.9525,-1.09361 2.02856,-1.95792 3.22792,-2.59292 1.23481,-0.635 2.50481,-0.9525 3.81,-0.9525 0.59981,0 1.16417,0.0529 1.69333,0.15875 0.56436,0.10583 1.00542,0.22931 1.32292,0.37042 l -1.42875,5.92666 c -0.42333,-0.17639 -0.89958,-0.3175 -1.42875,-0.42333 -0.49398,-0.1411 -0.98769,-0.21167 -1.48167,-0.21167 -0.9525,0 -1.86981,0.19402 -2.75166,0.58209 -0.84667,0.35277 -1.60523,0.86431 -2.27542,1.53458 -0.635,0.635 -1.14644,1.39348 -1.53458,2.27542 -0.38815,0.84666 -0.58209,1.78144 -0.58209,2.80458 v 15.34583 z m 33.14488,0.52917 c -2.8575,0 -5.3975,-0.59981 -7.62,-1.79917 -2.18731,-1.23481 -3.91583,-2.91041 -5.18583,-5.02708 -1.23481,-2.11667 -1.85208,-4.55083 -1.85208,-7.3025 0,-2.18731 0.35269,-4.18042 1.05833,-5.97958 0.70564,-1.79917 1.67561,-3.3514 2.91042,-4.65667 1.27,-1.34056 2.76939,-2.3636 4.49791,-3.06917 1.76398,-0.74083 3.66898,-1.11125 5.715,-1.11125 1.79917,0 3.47478,0.35277 5.02709,1.05834 1.55231,0.67027 2.89269,1.60514 4.02166,2.80458 1.16417,1.19944 2.04603,2.62819 2.64584,4.28625 0.635,1.62277 0.93477,3.40431 0.89958,5.34458 l -0.0529,2.32834 h -22.70125 l -1.21708,-4.33917 h 19.20875 l -0.79375,0.89958 v -1.27 c -0.10583,-1.16416 -0.49398,-2.20485 -1.16417,-3.12208 -0.67019,-0.91723 -1.51685,-1.64042 -2.54,-2.16958 -1.02314,-0.52917 -2.13439,-0.79375 -3.33375,-0.79375 -1.905,0 -3.51022,0.37041 -4.81541,1.11125 -1.30519,0.70556 -2.29315,1.76389 -2.96334,3.175 -0.67019,1.37583 -1.00541,3.08689 -1.00541,5.13291 0,1.94019 0.4056,3.63353 1.21708,5.08 0.81148,1.41103 1.95792,2.50481 3.43958,3.28084 1.48167,0.77602 3.19273,1.16416 5.13292,1.16416 1.37583,0 2.64583,-0.22939 3.81,-0.68791 1.19936,-0.45853 2.48708,-1.28773 3.86292,-2.48709 l 2.75166,3.86292 c -0.84666,0.84667 -1.88727,1.5875 -3.12208,2.2225 -1.19936,0.635 -2.48708,1.14644 -3.86292,1.53458 -1.34064,0.35269 -2.66356,0.52917 -3.96875,0.52917 z"
       fill="#1f204d"
       id="path7"
       style="fill:#f9f9f9;stroke-width:0.264583" /></g></svg>
