<?xml version="1.0" encoding="UTF-8" standalone="no"?>
<svg
   width="818.49976"
   height="156"
   viewBox="0 0 818.49976 156"
   fill="none"
   version="1.1"
   id="svg3"
   xmlns="http://www.w3.org/2000/svg"
   xmlns:svg="http://www.w3.org/2000/svg">
  <defs
     id="defs3" />
  <path
     fill-rule="evenodd"
     clip-rule="evenodd"
     d="m 802.904,1.683795 c -0.816,-2.24507 -3.992,-2.24505 -4.808,0 l -3.71,10.2023 -10.202,3.71 c -2.245,0.8164 -2.245,3.9915 0,4.8079 l 10.202,3.7099 3.71,10.2025 c 0.816,2.2448 3.992,2.2448 4.808,0 l 3.71,-10.2025 10.202,-3.7099 c 2.245,-0.8164 2.245,-3.9915 0,-4.8079 l -10.202,-3.71 z"
     fill="#1767be"
     id="path1" />
  <path
     d="m 507.8,82.599995 c 9.2,1.7333 16.667,5.1333 22.4,10.2 5.867,5.067 8.8,12.667005 8.8,22.800005 0,14.8 -5.333,25.267 -16,31.4 -10.533,6 -25.333,9 -44.4,9 H 434 V 17.399995 h 39.2 c 19.467,0 34.333,2.8 44.6,8.4 10.267,5.4667 15.4,14.4667 15.4,27 0,8.1333 -2.467,14.7333 -7.4,19.8 -4.8,4.9333 -10.8,8.2667 -18,10 z m -41,-42 v 32.2 H 479 c 13.867,0 20.8,-5.6 20.8,-16.8 0,-5.6 -1.867,-9.5333 -5.6,-11.8 -3.733,-2.4 -9.667,-3.6 -17.8,-3.6 z M 478.8,132.2 c 8.667,0 15.2,-1.267 19.6,-3.8 4.533,-2.667 6.8,-7.533 6.8,-14.6 0,-12.8 -8,-19.200005 -24,-19.200005 H 466.8 V 132.2 Z m 174.531,-114.800005 -3.2,25.2 h -34.2 V 156 h -32.8 V 42.599995 h -35.8 v -25.2 z M 717.139,103 h -12.8 v 53 h -32.8 V 17.399995 h 45.4 c 18.933,0 33.133,3.4667 42.6,10.4 9.6,6.9333 14.4,17.5333 14.4,31.8 0,8.9333 -2.133,16.4 -6.4,22.4 -4.267,5.8667 -11,10.867 -20.2,15 L 782.539,156 h -37 z m -12.8,-22.600005 h 13.8 c 7.333,0 12.8,-1.6667 16.4,-5 3.733,-3.3333 5.6,-8.6 5.6,-15.8 0,-6.6667 -2,-11.5333 -6,-14.6 -3.867,-3.0667 -9.867,-4.6 -18,-4.6 h -11.8 z"
     fill="#1767be"
     id="path2" />
  <path
     d="M 51,156 C 41.2667,156 32.5333,153.6 24.8,148.8 17.2,144 11.1333,137.467 6.6,129.2 2.2,120.933 0,111.667 0,101.4 0,91.132995 2.2,81.866695 6.6,73.599995 c 4.5333,-8.2667 10.6,-14.8 18.2,-19.6 7.7333,-4.8 16.4667,-7.2 26.2,-7.2 9.3333,0 17.8,1.9333 25.4,5.8 7.7333,3.7333 13.6,8.8667 17.6,15.4 l -11.4,14 c -2.1333,-3.0667 -4.8667,-5.8667 -8.2,-8.4 -3.3333,-2.5333 -6.8667,-4.5333 -10.6,-6 -3.7333,-1.4667 -7.3333,-2.2 -10.8,-2.2 -6.4,0 -12.1333,1.6 -17.2,4.8 -4.9333,3.0667 -8.8667,7.3333 -11.8,12.8 -2.9333,5.4667 -4.4,11.6 -4.4,18.400005 0,6.8 1.5333,12.933 4.6,18.4 3.0667,5.333 7.1333,9.6 12.2,12.8 5.0667,3.2 10.6667,4.8 16.8,4.8 3.6,0 7.0667,-0.6 10.4,-1.8 3.4667,-1.2 6.8,-3 10,-5.4 3.2,-2.4 6.2,-5.333 9,-8.8 l 11.4,14 c -4.2667,6 -10.4,10.933 -18.4,14.8 -7.8667,3.867 -16.0667,5.8 -24.6,5.8 z m 109.731,0 c -10.266,0 -19.466,-2.333 -27.6,-7 -8,-4.8 -14.333,-11.267 -19,-19.4 -4.666,-8.267 -7,-17.667 -7,-28.2 0,-10.533305 2.334,-19.866705 7,-28.000005 4.667,-8.2667 11,-14.7333 19,-19.4 8.134,-4.8 17.334,-7.2 27.6,-7.2 10.134,0 19.2,2.4 27.2,7.2 8.134,4.6667 14.534,11.1333 19.2,19.4 4.667,8.1333 7,17.4667 7,28.000005 0,10.533 -2.333,19.933 -7,28.2 -4.666,8.133 -11.066,14.6 -19.2,19.4 -8,4.667 -17.066,7 -27.2,7 z m 0,-18.8 c 6.267,0 11.867,-1.533 16.8,-4.6 4.934,-3.2 8.8,-7.467 11.6,-12.8 2.8,-5.467 4.134,-11.6 4,-18.4 0.134,-6.933005 -1.2,-13.066705 -4,-18.400005 -2.8,-5.4667 -6.666,-9.7333 -11.6,-12.8 -4.933,-3.0667 -10.533,-4.6 -16.8,-4.6 -6.266,0 -11.933,1.6 -17,4.8 -4.933,3.0667 -8.8,7.3333 -11.6,12.8 -2.8,5.3333 -4.133,11.4 -4,18.200005 -0.133,6.8 1.2,12.933 4,18.4 2.8,5.333 6.667,9.6 11.6,12.8 5.067,3.067 10.734,4.6 17,4.6 z M 236.678,154 V 48.999995 h 20.8 v 33 l -2,-8 c 1.467,-5.0667 3.933,-9.6667 7.4,-13.8 3.6,-4.1333 7.667,-7.4 12.2,-9.8 4.667,-2.4 9.467,-3.6 14.4,-3.6 2.267,0 4.4,0.2 6.4,0.6 2.133,0.4 3.8,0.8667 5,1.4 l -5.4,22.4 c -1.6,-0.6667 -3.4,-1.2 -5.4,-1.6 -1.867,-0.5333 -3.733,-0.8 -5.6,-0.8 -3.6,0 -7.067,0.7333 -10.4,2.2 -3.2,1.3333 -6.067,3.2667 -8.6,5.8 -2.4,2.4 -4.333,5.2667 -5.8,8.6 -1.467,3.2 -2.2,6.733 -2.2,10.6 V 154 Z m 125.272,2 c -10.8,0 -20.4,-2.267 -28.8,-6.8 -8.267,-4.667 -14.8,-11 -19.6,-19 -4.667,-8 -7,-17.2 -7,-27.6 0,-8.267005 1.333,-15.800005 4,-22.600005 2.667,-6.8 6.333,-12.6667 11,-17.6 4.8,-5.0667 10.467,-8.9333 17,-11.6 6.667,-2.8 13.867,-4.2 21.6,-4.2 6.8,0 13.133,1.3333 19,4 5.867,2.5333 10.933,6.0667 15.2,10.6 4.4,4.5333 7.733,9.9333 10,16.2 2.4,6.1333 3.533,12.8667 3.4,20.2 L 407.55,106.4 h -85.8 l -4.6,-16.400005 h 72.6 l -3,3.4 v -4.8 c -0.4,-4.4 -1.867,-8.3333 -4.4,-11.8 -2.533,-3.4667 -5.733,-6.2 -9.6,-8.2 -3.867,-2 -8.067,-3 -12.6,-3 -7.2,0 -13.267,1.4 -18.2,4.2 -4.933,2.6667 -8.667,6.6667 -11.2,12 -2.533,5.2 -3.8,11.667 -3.8,19.400005 0,7.333 1.533,13.733 4.6,19.2 3.067,5.333 7.4,9.467 13,12.4 5.6,2.933 12.067,4.4 19.4,4.4 5.2,0 10,-0.867 14.4,-2.6 4.533,-1.733 9.4,-4.867 14.6,-9.4 l 10.4,14.6 c -3.2,3.2 -7.133,6 -11.8,8.4 -4.533,2.4 -9.4,4.333 -14.6,5.8 -5.067,1.333 -10.067,2 -15,2 z"
     fill="#1f204d"
     id="path3" />
</svg>
